<svg xmlns="http://www.w3.org/2000/svg" viewBox="0 0 860 145" width="860" height="145" font-family="sans-serif">
  <rect width="860" height="145" fill="#f5f7f5" rx="6"/>

  <!-- FRAME 1: 周囲を剥離 -->
  <g transform="translate(10,10)">
    <rect width="105" height="110" rx="8" fill="#f4f5f4" stroke="#c8d0c8" stroke-width="1.5"/>
    <ellipse cx="52" cy="54" rx="26" ry="10" fill="#fce8e8" stroke="#c87070" stroke-width="1.5"/>
    <ellipse cx="52" cy="54" rx="36" ry="19" fill="none" stroke="#e0c8c8" stroke-width="1" stroke-dasharray="3,2"/>
    <line x1="16" y1="72" x2="44" y2="50" stroke="#7a8898" stroke-width="2.5" stroke-linecap="round"/>
    <line x1="12" y1="68" x2="40" y2="57" stroke="#7a8898" stroke-width="2" stroke-linecap="round"/>
    <rect x="8" y="65" width="9" height="6" rx="3" fill="#7a8898"/>
    <circle cx="11" cy="11" r="9" fill="#5a6a78"/>
    <text x="11" y="15" text-anchor="middle" font-size="10" fill="white" font-weight="bold">1</text>
    <text x="52" y="101" text-anchor="middle" font-size="10" fill="#3d5042" font-weight="500">周囲を剥離</text>
  </g>

  <!-- ARROW -->
  <polygon points="119,61 127,65 119,69" fill="#9aab9a"/>
  <line x1="115" y1="65" x2="119" y2="65" stroke="#9aab9a" stroke-width="2"/>

  <!-- FRAME 2: 裏を通す -->
  <g transform="translate(130,10)">
    <rect width="105" height="110" rx="8" fill="#f4f5f4" stroke="#c8d0c8" stroke-width="1.5"/>
    <ellipse cx="52" cy="50" rx="26" ry="10" fill="#fce8e8" stroke="#c87070" stroke-width="1.5"/>
    <path d="M16,44 Q52,74 88,44" fill="none" stroke="#7a8898" stroke-width="2.5" stroke-linecap="round"/>
    <rect x="8" y="39" width="9" height="6" rx="3" fill="#7a8898"/>
    <circle cx="11" cy="11" r="9" fill="#5a6a78"/>
    <text x="11" y="15" text-anchor="middle" font-size="10" fill="white" font-weight="bold">2</text>
    <text x="52" y="101" text-anchor="middle" font-size="10" fill="#3d5042" font-weight="500">裏を通す</text>
  </g>

  <!-- ARROW -->
  <polygon points="239,61 247,65 239,69" fill="#9aab9a"/>
  <line x1="235" y1="65" x2="239" y2="65" stroke="#9aab9a" stroke-width="2"/>

  <!-- FRAME 3: 糸を通す (GREEN) -->
  <g transform="translate(250,10)">
    <rect width="105" height="110" rx="8" fill="#f0f7f2" stroke="#b8cfbb" stroke-width="1.5"/>
    <ellipse cx="52" cy="50" rx="26" ry="10" fill="#fce8e8" stroke="#c87070" stroke-width="1.5"/>
    <path d="M16,44 Q52,72 88,44" fill="none" stroke="#1a7a4e" stroke-width="2.5" stroke-linecap="round"/>
    <line x1="16" y1="44" x2="8" y2="28" stroke="#1a7a4e" stroke-width="2" stroke-linecap="round"/>
    <line x1="88" y1="44" x2="96" y2="28" stroke="#1a7a4e" stroke-width="2" stroke-linecap="round"/>
    <circle cx="11" cy="11" r="9" fill="#1a7a4e"/>
    <text x="11" y="15" text-anchor="middle" font-size="10" fill="white" font-weight="bold">3</text>
    <text x="52" y="101" text-anchor="middle" font-size="10" fill="#1a7a4e" font-weight="500">糸を通す</text>
  </g>

  <!-- ARROW -->
  <polygon points="359,61 367,65 359,69" fill="#9aab9a"/>
  <line x1="355" y1="65" x2="359" y2="65" stroke="#9aab9a" stroke-width="2"/>

  <!-- FRAME 4: 結紮 (GREEN) -->
  <g transform="translate(370,10)">
    <rect width="105" height="110" rx="8" fill="#f0f7f2" stroke="#b8cfbb" stroke-width="1.5"/>
    <ellipse cx="52" cy="62" rx="26" ry="10" fill="#fce8e8" stroke="#c87070" stroke-width="1.5"/>
    <path d="M28,46 Q40,30 52,40 Q64,30 76,46" fill="none" stroke="#1a7a4e" stroke-width="2.5" stroke-linecap="round"/>
    <path d="M28,46 Q40,54 52,50 Q64,54 76,46" fill="none" stroke="#1a7a4e" stroke-width="2.5" stroke-linecap="round"/>
    <circle cx="11" cy="11" r="9" fill="#1a7a4e"/>
    <text x="11" y="15" text-anchor="middle" font-size="10" fill="white" font-weight="bold">4</text>
    <text x="52" y="101" text-anchor="middle" font-size="10" fill="#1a7a4e" font-weight="500">結紮する</text>
  </g>

  <!-- ARROW -->
  <polygon points="479,61 487,65 479,69" fill="#9aab9a"/>
  <line x1="475" y1="65" x2="479" y2="65" stroke="#9aab9a" stroke-width="2"/>

  <!-- FRAME 5: ノットプッシャー (GREEN) -->
  <g transform="translate(490,10)">
    <rect width="105" height="110" rx="8" fill="#f0f7f2" stroke="#b8cfbb" stroke-width="1.5"/>
    <ellipse cx="52" cy="80" rx="22" ry="9" fill="#fce8e8" stroke="#c87070" stroke-width="1.5"/>
    <rect x="46" y="22" width="12" height="42" rx="5" fill="#c8e6d8" stroke="#1a7a4e" stroke-width="1.5"/>
    <ellipse cx="52" cy="64" rx="9" ry="5" fill="#e4f0e8" stroke="#1a7a4e" stroke-width="1.5"/>
    <polygon points="48,16 56,16 52,23" fill="#1a7a4e"/>
    <circle cx="11" cy="11" r="9" fill="#1a7a4e"/>
    <text x="11" y="15" text-anchor="middle" font-size="10" fill="white" font-weight="bold">5</text>
    <text x="52" y="101" text-anchor="middle" font-size="9" fill="#1a7a4e" font-weight="500">結び目を送る</text>
  </g>

  <!-- ARROW -->
  <polygon points="599,61 607,65 599,69" fill="#9aab9a"/>
  <line x1="595" y1="65" x2="599" y2="65" stroke="#9aab9a" stroke-width="2"/>

  <!-- FRAME 6: 切離 (ORANGE) -->
  <g transform="translate(610,10)">
    <rect width="105" height="110" rx="8" fill="#fef6ee" stroke="#e8c888" stroke-width="1.5"/>
    <ellipse cx="52" cy="62" rx="26" ry="10" fill="#fce8e8" stroke="#c87070" stroke-width="1.5"/>
    <circle cx="26" cy="62" r="7" fill="#e4f0e8" stroke="#1a7a4e" stroke-width="1.5"/>
    <circle cx="78" cy="62" r="7" fill="#e4f0e8" stroke="#1a7a4e" stroke-width="1.5"/>
    <line x1="40" y1="24" x2="52" y2="52" stroke="#d97a00" stroke-width="3" stroke-linecap="round"/>
    <line x1="64" y1="24" x2="52" y2="52" stroke="#d97a00" stroke-width="3" stroke-linecap="round"/>
    <line x1="42" y1="36" x2="62" y2="36" stroke="#d97a00" stroke-width="2" stroke-linecap="round"/>
    <circle cx="11" cy="11" r="9" fill="#d97a00"/>
    <text x="11" y="15" text-anchor="middle" font-size="10" fill="white" font-weight="bold">6</text>
    <text x="52" y="101" text-anchor="middle" font-size="10" fill="#6b3d00" font-weight="500">切離する</text>
  </g>

  <!-- ARROW -->
  <polygon points="719,61 727,65 719,69" fill="#9aab9a"/>
  <line x1="715" y1="65" x2="719" y2="65" stroke="#9aab9a" stroke-width="2"/>

  <!-- FRAME 7: 糸切り・回収 (PURPLE) -->
  <g transform="translate(730,10)">
    <rect width="105" height="110" rx="8" fill="#f4f0fc" stroke="#c8bef0" stroke-width="1.5"/>
    <line x1="30" y1="26" x2="66" y2="62" stroke="#6b52d4" stroke-width="2.5" stroke-linecap="round"/>
    <line x1="66" y1="26" x2="30" y2="62" stroke="#6b52d4" stroke-width="2.5" stroke-linecap="round"/>
    <circle cx="26" cy="23" r="4.5" fill="none" stroke="#6b52d4" stroke-width="2"/>
    <circle cx="70" cy="23" r="4.5" fill="none" stroke="#6b52d4" stroke-width="2"/>
    <line x1="48" y1="58" x2="48" y2="76" stroke="#1a7a4e" stroke-width="2" stroke-dasharray="3,2"/>
    <rect x="34" y="77" width="30" height="16" rx="3" fill="#e8e8e8" stroke="#9090a0" stroke-width="1"/>
    <text x="49" y="89" text-anchor="middle" font-size="9" fill="#6b8070">回収</text>
    <circle cx="11" cy="11" r="9" fill="#6b52d4"/>
    <text x="11" y="15" text-anchor="middle" font-size="10" fill="white" font-weight="bold">7</text>
    <text x="52" y="101" text-anchor="middle" font-size="9" fill="#3b2d7a" font-weight="500">糸切り・回収</text>
  </g>
</svg>
